<?xml version="1.0" standalone="no"?>
<!DOCTYPE svg PUBLIC "-//W3C//DTD SVG 20010904//EN"
 "http://www.w3.org/TR/2001/REC-SVG-20010904/DTD/svg10.dtd">
<svg version="1.0" xmlns="http://www.w3.org/2000/svg"
 width="384.000000pt" height="384.000000pt" viewBox="0 0 384.000000 384.000000"
 preserveAspectRatio="xMidYMid meet">
<metadata>
Created by potrace 1.11, written by Peter Selinger 2001-2013
</metadata>
<g transform="translate(0.000000,384.000000) scale(0.100000,-0.100000)"
fill="#000000" stroke="none">
<path d="M555 3800 c-181 -91 -448 -363 -525 -533 -22 -48 -25 -104 -7 -128
15 -21 184 -130 292 -190 69 -38 174 -88 280 -134 77 -33 207 -67 280 -72 44
-3 81 -6 82 -7 7 -5 -32 -148 -51 -185 -80 -156 -114 -303 -110 -486 2 -109 4
-134 25 -230 52 -243 197 -494 387 -670 191 -177 459 -311 682 -342 30 -5 118
-8 195 -7 167 0 271 22 404 85 47 22 95 42 106 44 11 1 34 5 51 9 17 3 47 8
68 10 20 3 40 7 44 10 4 2 8 -44 9 -103 1 -125 27 -226 101 -391 80 -181 235
-438 279 -461 50 -27 152 14 281 113 129 100 318 313 373 421 29 57 36 129 14
151 -15 14 -108 79 -180 123 -123 76 -328 177 -442 217 -121 42 -179 54 -266
55 -32 1 -56 5 -53 10 3 4 10 41 17 82 6 41 22 99 36 129 80 175 103 290 99
480 -2 74 -7 149 -10 165 -4 17 -9 44 -13 60 -4 17 -7 32 -8 35 0 3 -4 11 -8
18 -5 6 -6 12 -3 12 16 0 -93 249 -147 335 -67 108 -226 283 -317 351 -260
193 -491 271 -790 267 -150 -2 -262 -27 -422 -97 -58 -25 -116 -46 -129 -46
-13 -1 -41 -7 -61 -14 l-38 -14 0 70 c0 136 -51 310 -147 503 -78 156 -194
342 -232 372 -27 21 -84 14 -146 -17z"/>
</g>
</svg>
